<svg width="20" height="20" viewBox="0 0 20 20" fill="none" xmlns="http://www.w3.org/2000/svg">
<path d="M2.14282 20L11.4286 20C12.612 20 13.5714 19.0406 13.5714 17.8571L13.5714 13.5714C13.5714 13.1769 13.2516 12.8571 12.8571 12.8571C12.4626 12.8571 12.1428 13.1769 12.1428 13.5714L12.1428 17.8571C12.1428 18.2516 11.823 18.5714 11.4285 18.5714L2.14278 18.5714C1.74828 18.5714 1.42848 18.2516 1.42848 17.8571L1.42848 2.14286C1.42848 1.74835 1.74828 1.42856 2.14278 1.42856L11.4286 1.42856C11.8231 1.42856 12.1429 1.74835 12.1429 2.14286L12.1429 6.42857C12.1429 6.82307 12.4627 7.14287 12.8572 7.14287C13.2517 7.14287 13.5715 6.82307 13.5715 6.42857L13.5715 2.14286C13.5715 0.959389 12.6121 -8.38726e-08 11.4286 -1.87335e-07L2.14286 -9.99121e-07C0.959392 -1.10258e-06 3.57193e-06 0.959388 3.46847e-06 2.14286L2.09468e-06 17.8571C-3.99704e-05 19.0406 0.95935 20 2.14282 20Z" fill="#6F849C"/>
<path d="M5.71442 10.7143L17.5615 10.7143L15.2094 13.0664C14.9353 13.3502 14.9432 13.8024 15.227 14.0764C15.5038 14.3437 15.9426 14.3437 16.2194 14.0764L19.7908 10.505C19.8572 10.4386 19.9096 10.3597 19.9451 10.2729C20.0173 10.0981 20.0173 9.90188 19.9451 9.72714C19.9094 9.63996 19.8567 9.56082 19.7901 9.49428L16.2187 5.92286C15.9446 5.6391 15.4925 5.63123 15.2087 5.90528C14.9249 6.17933 14.9171 6.63151 15.1911 6.91527C15.1969 6.92121 15.2027 6.92707 15.2087 6.93285L17.5615 9.28572L5.71438 9.28572C5.31988 9.28572 5.00008 9.60552 5.00008 10C5.00008 10.3945 5.31992 10.7143 5.71442 10.7143Z" fill="#6F849C"/>
</svg>
