<svg width="16" height="20" viewBox="0 0 16 20" fill="none" xmlns="http://www.w3.org/2000/svg">
<path d="M7.61903 0.00200176C5.59834 0.00200176 3.66041 0.844772 2.23156 2.34491C0.802717 3.84505 0 5.87968 0 8.0012V20H3.80951V14.9265C4.8216 15.5401 5.95457 15.901 7.12076 15.9813C8.28695 16.0616 9.4551 15.8591 10.5349 15.3896C11.6146 14.9201 12.577 14.196 13.3476 13.2735C14.1182 12.351 14.6763 11.2548 14.9788 10.0696C15.2813 8.88437 15.32 7.642 15.092 6.43857C14.864 5.23514 14.3753 4.1029 13.6639 3.12947C12.9524 2.15603 12.0371 1.36748 10.989 0.824826C9.94077 0.282168 8.78772 -5.39763e-05 7.61903 7.74316e-09V0.00200176ZM7.61903 12.0008C6.86423 12.0075 6.12455 11.7787 5.49383 11.3433C4.86311 10.908 4.3698 10.2857 4.07649 9.55548C3.78319 8.82527 3.70311 8.02004 3.84643 7.24197C3.98974 6.4639 4.34999 5.74806 4.88145 5.1853C5.4129 4.62254 6.09162 4.23822 6.83146 4.08112C7.57131 3.92402 8.33893 4.00122 9.03691 4.30291C9.7349 4.60461 10.3318 5.1172 10.7518 5.77565C11.1719 6.4341 11.3961 7.20871 11.3962 8.0012C11.4002 9.05737 11.0046 10.072 10.2963 10.822C9.58801 11.572 8.625 11.996 7.61903 12.0008Z" fill="#BD0D22"/>
</svg>
